<svg xmlns="http://www.w3.org/2000/svg" viewBox="-93 -10354 44.721 40"><defs><style>.cls-1{fill:#fff}</style></defs><path id="Path_55" data-name="Path 55" class="cls-1" d="M44.038 33.59L25.928 2.208a5.238 5.238 0 0 0-.2-.352l-.012-.012a2.908 2.908 0 0 0-.223-.305c0-.012-.012-.012-.012-.023a.588.588 0 0 0-.082-.094v-.013a2.255 2.255 0 0 0-.164-.176l-.023-.023a.542.542 0 0 0-.082-.082l-.035-.035c-.059-.047-.106-.106-.164-.153l-.013-.012a.211.211 0 0 0-.082-.059c-.012-.012-.036-.023-.048-.035a.5.5 0 0 0-.082-.059c-.023-.012-.047-.035-.07-.047s-.082-.059-.117-.082-.048-.035-.071-.046a.246.246 0 0 1-.07-.047C24.354.54 24.319.517 24.3.505L24.225.47C24.178.446 24.143.423 24.1.4a.257.257 0 0 1-.059-.035C24 .352 23.978.329 23.943.317s-.035-.012-.059-.023c-.047-.024-.094-.036-.153-.059-.012 0-.035-.012-.047-.012C23.649.211 23.6.2 23.567.188s-.035-.012-.059-.023l-.141-.036c-.012 0-.023 0-.023-.012l-.165-.035c-.012 0-.035-.012-.047-.012-.047-.012-.094-.012-.141-.023a.071.071 0 0 1-.047-.012c-.059-.012-.117-.012-.176-.023h-.035c-.047 0-.094-.012-.141-.012h-.235a1.991 1.991 0 0 0-.257.012h-.07a1.157 1.157 0 0 0-.2.023.106.106 0 0 0-.059.012 1.823 1.823 0 0 0-.247.047c-.012 0-.035.012-.047.012-.07.012-.129.035-.2.047-.023.012-.047.012-.059.023l-.211.07c-.012 0-.012 0-.023.012a1.273 1.273 0 0 0-.223.094c-.012.012-.035.012-.047.023-.059.023-.117.059-.176.082-.013.013-.038.013-.048.025-.07.035-.141.082-.211.117-.07.047-.141.082-.2.129-.012.012-.023.023-.035.023l-.176.141-.012.008c-.07.059-.129.106-.188.164l-.012.012a2.17 2.17 0 0 0-.164.164l-.023.023a2.535 2.535 0 0 0-.317.388l-.023.023a1.163 1.163 0 0 0-.129.2l-.012.012a2.182 2.182 0 0 0-.129.223L.63 33.872l.023-.035A3.992 3.992 0 0 0 6.42 39.18c2.02-1.456 7.81-2.537 14.787-2.643l-.141-.622 1.127.211-.9-1.773 1.4.693c.787-13.189-.294-16.49-.294-16.49-1.421.893-.693 2.866-.693 2.866-1.773-.987-1.48-3.852-1.48-3.852-1.386.258-2.9 2.666-2.9 2.666a3.581 3.581 0 0 1 2.166-4.636c-2.208-.893-4.616 1.844-4.616 1.844-.07-4.71 5.168-3.887 5.168-3.887a4.942 4.942 0 0 0-3.817-1.938A3.468 3.468 0 0 1 21.794 13c2.8-4.674 5.99-1.715 5.99-1.715a4.854 4.854 0 0 0-3.984 2.374c5.038-.4 5.273 2.044 5.273 2.044a7.342 7.342 0 0 0-4.639-.329c3.394 1.75 3.253 3.523 3.253 3.523a4.836 4.836 0 0 0-3.535-1.2 67.181 67.181 0 0 1 1.388 16.668l1.9-.493-1.327 1.95 1.55-.294-.9 1.139c5.5.341 9.866 1.292 11.568 2.525a4 4 0 0 0 4.757.047 4.167 4.167 0 0 0 .95-5.649z" transform="translate(-93.022 -10354)"/></svg>