<?xml version="1.0" encoding="UTF-8"?>
<svg width="24px" height="24px" viewBox="0 0 24 24" version="1.1" xmlns="http://www.w3.org/2000/svg" xmlns:xlink="http://www.w3.org/1999/xlink">
    <!-- Generator: Sketch 43.2 (39069) - http://www.bohemiancoding.com/sketch -->
    <title>ic_menu</title>
    <desc>Created with Sketch.</desc>
    <defs></defs>
    <g id="Asset-collection" stroke="none" stroke-width="1" fill="none" fill-rule="evenodd">
        <g id="asset-collection" transform="translate(-693.000000, -423.000000)"></g>
        <g id="ic_menu" fill-rule="nonzero" fill="#FFFFFF">
            <g transform="translate(0.500000, 5.000000)">
                <path d="M1.5,2 L15.5,2 C16.0522847,2 16.5,1.55228475 16.5,1 C16.5,0.44771525 16.0522847,0 15.5,0 L1.5,0 C0.94771525,0 0.5,0.44771525 0.5,1 C0.5,1.55228475 0.94771525,2 1.5,2 Z" id="Line"></path>
                <path d="M1.5,8 L21.5,8 C22.0522847,8 22.5,7.55228475 22.5,7 C22.5,6.44771525 22.0522847,6 21.5,6 L1.5,6 C0.94771525,6 0.5,6.44771525 0.5,7 C0.5,7.55228475 0.94771525,8 1.5,8 Z" id="Line-Copy"></path>
                <path d="M1.5,14 L9.5,14 C10.0522847,14 10.5,13.5522847 10.5,13 C10.5,12.4477153 10.0522847,12 9.5,12 L1.5,12 C0.94771525,12 0.5,12.4477153 0.5,13 C0.5,13.5522847 0.94771525,14 1.5,14 Z" id="Line-Copy-2"></path>
            </g>
        </g>
    </g>
</svg>